<svg width="30" height="30" viewBox="0 0 30 30" fill="none" xmlns="http://www.w3.org/2000/svg">
<g clip-path="url(#clip0_205_5)">
<path d="M15 0C6.71578 0 0 6.71578 0 15C0 23.2842 6.71578 30 15 30C23.2842 30 30 23.2842 30 15C30 6.71578 23.2842 0 15 0ZM15 27.1875C8.26922 27.1875 2.8125 21.7308 2.8125 15C2.8125 8.26922 8.26922 2.8125 15 2.8125C21.7308 2.8125 27.1875 8.26922 27.1875 15C27.1875 21.7308 21.7308 27.1875 15 27.1875ZM11.25 8.4375L22.5 15L11.25 21.5625V8.4375Z" fill="white"/>
</g>
<defs>
<clipPath id="clip0_205_5">
<rect width="30" height="30" fill="white"/>
</clipPath>
</defs>
</svg>
