<svg width="30" height="30" viewBox="0 0 30 30" fill="none" xmlns="http://www.w3.org/2000/svg">
<path d="M15 26.3535C14.8129 26.3533 14.6326 26.2833 14.4945 26.157L7.20898 19.5H4.39648C4.19757 19.5 4.00681 19.421 3.86615 19.2803C3.7255 19.1397 3.64648 18.9489 3.64648 18.75V11.25C3.64648 11.0511 3.7255 10.8603 3.86615 10.7197C4.00681 10.579 4.19757 10.5 4.39648 10.5H7.20898L14.4945 3.84299C14.6019 3.74501 14.7354 3.68035 14.8789 3.65688C15.0223 3.6334 15.1695 3.65213 15.3025 3.71077C15.4355 3.76941 15.5487 3.86544 15.6281 3.98718C15.7075 4.10892 15.7499 4.25112 15.75 4.39649V25.6035C15.75 25.8024 15.671 25.9932 15.5303 26.1338C15.3897 26.2745 15.1989 26.3535 15 26.3535ZM5.14648 18H7.49998C7.6871 18.0001 7.8674 18.0702 8.00548 18.1965L14.25 23.8965V6.09749L8.00548 11.7975C7.86831 11.9259 7.6879 11.9982 7.49998 12H5.14648V18Z" fill="white"/>
<path d="M17.91 18.3795C17.7618 18.3795 17.6169 18.3355 17.4936 18.2532C17.3704 18.1709 17.2743 18.0539 17.2174 17.917C17.1606 17.7801 17.1457 17.6294 17.1744 17.484C17.2032 17.3386 17.2744 17.205 17.379 17.1C17.9352 16.5426 18.2475 15.7874 18.2475 15C18.2475 14.2126 17.9352 13.4574 17.379 12.9C17.2424 12.7586 17.1668 12.5691 17.1685 12.3725C17.1702 12.1758 17.2491 11.9877 17.3881 11.8486C17.5272 11.7096 17.7153 11.6307 17.9119 11.629C18.1086 11.6273 18.298 11.7029 18.4395 11.8395C19.2765 12.6784 19.7466 13.815 19.7466 15C19.7466 16.185 19.2765 17.3217 18.4395 18.1605C18.2989 18.3007 18.1085 18.3795 17.91 18.3795Z" fill="white"/>
<path d="M20.562 21.0315C20.4134 21.0318 20.2682 20.9879 20.1446 20.9055C20.021 20.8231 19.9247 20.7059 19.8678 20.5687C19.8109 20.4315 19.7961 20.2805 19.8251 20.1348C19.8542 19.9891 19.9258 19.8554 20.031 19.7505C20.655 19.1267 21.1499 18.3861 21.4877 17.571C21.8254 16.7559 21.9992 15.8823 21.9992 15C21.9992 14.1177 21.8254 13.244 21.4877 12.4289C21.1499 11.6138 20.655 10.8733 20.031 10.2495C19.9593 10.1803 19.9022 10.0975 19.8629 10.006C19.8236 9.91454 19.8029 9.81612 19.802 9.71654C19.8012 9.61695 19.8201 9.51819 19.8579 9.42602C19.8956 9.33385 19.9513 9.25011 20.0217 9.17969C20.0921 9.10927 20.1758 9.05358 20.268 9.01587C20.3602 8.97816 20.4589 8.95918 20.5585 8.96005C20.6581 8.96092 20.7565 8.9816 20.848 9.02091C20.9395 9.06022 21.0223 9.11735 21.0915 9.18899C21.8547 9.95203 22.4601 10.858 22.8732 11.855C23.2863 12.8521 23.4989 13.9207 23.4989 15C23.4989 16.0792 23.2863 17.1479 22.8732 18.145C22.4601 19.142 21.8547 20.0479 21.0915 20.811C20.9512 20.9517 20.7607 21.031 20.562 21.0315Z" fill="white"/>
<path d="M22.8 23.2695C22.6518 23.2695 22.5069 23.2255 22.3836 23.1432C22.2604 23.0609 22.1643 22.9439 22.1074 22.807C22.0506 22.6701 22.0357 22.5194 22.0644 22.374C22.0932 22.2286 22.1644 22.095 22.269 21.99C24.1226 20.136 25.1639 17.6217 25.1639 15C25.1639 12.3783 24.1226 9.864 22.269 8.00999C22.1974 7.9408 22.1402 7.85804 22.1009 7.76654C22.0616 7.67504 22.0409 7.57662 22.0401 7.47704C22.0392 7.37745 22.0582 7.27869 22.0959 7.18652C22.1336 7.09435 22.1893 7.01061 22.2597 6.94019C22.3301 6.86977 22.4139 6.81408 22.506 6.77637C22.5982 6.73866 22.697 6.71968 22.7966 6.72055C22.8961 6.72141 22.9946 6.7421 23.0861 6.78141C23.1776 6.82072 23.2603 6.87785 23.3295 6.94949C24.3867 8.00668 25.2254 9.26177 25.7975 10.6431C26.3697 12.0244 26.6642 13.5049 26.6642 15C26.6642 16.4951 26.3697 17.9756 25.7975 19.3569C25.2254 20.7382 24.3867 21.9933 23.3295 23.0505C23.1889 23.1907 22.9985 23.2694 22.8 23.2695Z" fill="white"/>
<line x1="18.9219" y1="6.64279" x2="4.766" y2="23.5132" stroke="white" stroke-width="2"/>
</svg>
